<?xml version="1.0" standalone="no"?>
<!DOCTYPE svg PUBLIC "-//W3C//DTD SVG 20010904//EN"
 "http://www.w3.org/TR/2001/REC-SVG-20010904/DTD/svg10.dtd">
<svg version="1.0" xmlns="http://www.w3.org/2000/svg"
 width="70.000000pt" height="70.000000pt" viewBox="0 0 70.000000 70.000000"
 preserveAspectRatio="xMidYMid meet">
<metadata>
Created by potrace 1.14, written by Peter Selinger 2001-2017
</metadata>
<g transform="translate(0.000000,70.000000) scale(0.100000,-0.100000)"
fill="#000000" stroke="none">
<path d="M259 687 c-103 -29 -185 -101 -231 -203 -34 -74 -32 -199 3 -274 39
-81 90 -134 167 -172 60 -30 76 -33 152 -33 76 0 92 3 152 33 77 38 128 91
167 172 21 46 26 69 26 140 0 98 -25 163 -89 237 -76 87 -233 132 -347 100z
m98 -164 c-3 -10 -5 -4 -5 12 0 17 2 24 5 18 2 -7 2 -21 0 -30z m-177 13 c0
-2 -8 -10 -17 -17 -16 -13 -17 -12 -4 4 13 16 21 21 21 13z m126 -24 c12 -9
27 -28 33 -42 11 -23 11 -23 -3 -7 -14 18 -15 17 -19 -15 -4 -33 -4 -33 -5 5
-2 33 -6 40 -32 50 -16 6 -30 15 -30 19 0 14 34 8 56 -10z m-95 -14 c-4 -13
-6 -30 -4 -38 3 -10 1 -9 -7 2 -8 13 -8 23 0 38 14 27 22 25 11 -2z m-66 -20
c-15 -65 37 -120 123 -132 28 -3 56 -14 63 -23 10 -12 10 -15 2 -9 -10 5 -13
-6 -13 -43 0 -28 -3 -51 -7 -51 -5 0 -6 24 -5 54 l4 53 -59 12 c-63 12 -104
43 -118 89 -7 23 0 72 10 72 3 0 3 -10 0 -22z m245 -34 c0 -65 7 -84 31 -84
25 0 42 35 37 80 -2 21 0 36 4 34 5 -3 8 -22 8 -42 0 -41 -23 -82 -46 -82 -15
0 -11 -35 8 -72 6 -14 5 -16 -7 -12 -8 4 -15 18 -15 33 0 14 -7 40 -16 56 -9
17 -16 45 -15 63 1 17 -2 32 -7 32 -4 0 -9 11 -10 23 -1 15 4 24 13 24 11 0
15 -13 15 -53z m160 -7 c0 -41 -18 -80 -49 -103 -13 -10 -13 -15 3 -40 l17
-29 -25 29 -24 29 35 33 c33 32 35 37 31 84 -3 27 -1 47 4 44 4 -3 8 -24 8
-47z m-359 -144 c6 -16 18 -37 27 -48 9 -12 5 -8 -10 7 -16 16 -28 35 -28 43
0 8 -6 15 -14 15 -11 0 -13 -7 -6 -32 13 -54 21 -102 14 -96 -8 9 -31 127 -26
133 13 13 34 2 43 -22z m156 -30 c-3 -10 -5 -4 -5 12 0 17 2 24 5 18 2 -7 2
-21 0 -30z m203 -28 c13 -14 21 -25 18 -25 -2 0 -15 11 -28 25 -13 14 -21 25
-18 25 2 0 15 -11 28 -25z m-157 -13 c-2 -10 -11 -19 -19 -19 -11 0 -11 4 3
19 20 23 22 23 16 0z m88 -19 c13 -16 12 -17 -3 -4 -17 13 -22 21 -14 21 2 0
10 -8 17 -17z m-41 -23 c0 -11 -2 -20 -4 -20 -2 0 -6 9 -9 20 -3 11 -1 20 4
20 5 0 9 -9 9 -20z m180 0 c0 -11 -2 -20 -4 -20 -2 0 -6 9 -9 20 -3 11 -1 20
4 20 5 0 9 -9 9 -20z m-221 -16 c2 -2 -31 -4 -75 -3 -55 1 -71 3 -54 9 23 7
119 3 129 -6z m169 -1 c-10 -2 -28 -2 -40 0 -13 2 -5 4 17 4 22 1 32 -1 23 -4z"/>
</g>
</svg>
